<svg width="155" height="42" viewBox="0 0 155 42" fill="none" xmlns="http://www.w3.org/2000/svg">
<path d="M57.2239 33.5049H49.1396V31.621H57.2239C58.2326 31.621 58.7963 31.0573 58.7963 30.2118C58.7963 29.2921 58.2326 28.8175 57.2239 28.8175H52.2695C50.2373 28.8175 48.9764 27.5269 48.9764 25.7469C48.9764 24.0114 50.1483 22.7209 52.2991 22.7209H60.0423V24.6047H52.2991C51.4388 24.6047 50.9345 25.1091 50.9345 25.9249C50.9345 26.7408 51.4536 27.2303 52.2843 27.2303H57.2239C59.4044 27.2303 60.5763 28.2538 60.5763 30.3453C60.5763 32.155 59.4786 33.5049 57.2239 33.5049ZM69.7417 33.5049H67.1162C64.105 33.5049 61.8799 31.1315 61.8799 28.0016C61.8799 24.8272 64.105 22.7209 67.1162 22.7209H69.7417C72.8568 22.7209 75.0225 24.8717 75.0225 28.0016C75.0225 31.1315 72.8123 33.5049 69.7417 33.5049ZM67.1162 31.621H69.7417C71.7294 31.621 73.1386 30.1228 73.1386 28.0906C73.1386 26.0584 71.7294 24.6047 69.7417 24.6047H67.1162C65.1878 24.6047 63.7638 26.0436 63.7638 28.0906C63.7638 30.1228 65.173 31.621 67.1162 31.621ZM78.416 33.5049H76.547V22.7209H85.6993V24.6047H78.416V33.5049ZM85.2543 29.04H79.7955V27.3934H85.2543V29.04ZM92.9543 33.5049H91.0704V24.6047H86.9764V22.7209H97.0484V24.6047H92.9543V33.5049ZM108.422 33.0599L106.76 29.9003L105.084 33.0599C104.876 33.4604 104.506 33.6532 104.12 33.6532C103.705 33.6532 103.363 33.4604 103.141 33.0599L97.5635 22.7209H99.8182L104.179 31.0128L105.811 28.0758L103.007 22.7209H105.277L109.445 31.0128L113.836 22.7209H115.942L110.365 33.0599C110.142 33.4604 109.786 33.6532 109.386 33.6532C108.985 33.6532 108.629 33.4604 108.422 33.0599ZM127.26 33.5049H124.991L123.374 30.7903H118.271L119.161 29.2625H122.469L120.066 25.2277L115.171 33.5049H113.02L119.22 23.1807C119.443 22.8099 119.725 22.5725 120.14 22.5725C120.555 22.5725 120.822 22.8099 121.045 23.1807L127.26 33.5049ZM141.104 33.5049H138.434L135.704 30.5085H131.67V28.8471H136.164C137.514 28.8471 138.226 28.0758 138.226 26.6814C138.226 25.2871 137.455 24.6047 136.164 24.6047H130.29V33.5049H128.421V22.7209H136.164C138.627 22.7209 140.08 24.2487 140.08 26.6518C140.08 28.4318 139.25 29.6926 137.855 30.2267L141.104 33.5049ZM151.723 33.5049H142.081V22.7209H151.708V24.6047H143.95V31.621H151.723V33.5049ZM151.308 28.8175H145.33V27.2303H151.308V28.8175Z" fill="white"/>
<path d="M57.2239 17.8074H49.1396V15.9235H57.2239C58.2326 15.9235 58.7963 15.3598 58.7963 14.5143C58.7963 13.5946 58.2326 13.12 57.2239 13.12H52.2695C50.2373 13.12 48.9764 11.8294 48.9764 10.0494C48.9764 8.31387 50.1483 7.02335 52.2991 7.02335H60.0423V8.90722H52.2991C51.4388 8.90722 50.9345 9.41156 50.9345 10.2274C50.9345 11.0433 51.4536 11.5328 52.2843 11.5328H57.2239C59.4044 11.5328 60.5763 12.5563 60.5763 14.6478C60.5763 16.4575 59.4786 17.8074 57.2239 17.8074ZM64.1791 17.8074H62.2953V7.02335H64.1791V17.8074ZM78.8288 17.8074H76.1588L73.4294 14.811H69.3946V13.1496H73.8892C75.2391 13.1496 75.9511 12.3783 75.9511 10.9839C75.9511 9.58956 75.1797 8.90722 73.8892 8.90722H68.0151V17.8074H66.1461V7.02335H73.8892C76.3516 7.02335 77.8053 8.55121 77.8053 10.9543C77.8053 12.7343 76.9746 13.9951 75.5802 14.5291L78.8288 17.8074ZM81.794 17.8074H79.9101V7.02335H81.794V17.8074ZM93.4028 13.0458V7.02335H95.2422V13.0458C95.2422 16.3833 93.5956 17.9557 89.4126 17.9557C85.2592 17.9557 83.5978 16.3833 83.5978 13.0458V7.02335H85.541V13.0458C85.541 15.2115 86.5052 16.1015 89.4719 16.1015C92.4386 16.1015 93.4028 15.2115 93.4028 13.0458ZM105.027 17.8074H96.9432V15.9235H105.027C106.036 15.9235 106.6 15.3598 106.6 14.5143C106.6 13.5946 106.036 13.12 105.027 13.12H100.073C98.0409 13.12 96.78 11.8294 96.78 10.0494C96.78 8.31387 97.9518 7.02335 100.103 7.02335H107.846V8.90722H100.103C99.2424 8.90722 98.738 9.41156 98.738 10.2274C98.738 11.0433 99.2572 11.5328 100.088 11.5328H105.027C107.208 11.5328 108.38 12.5563 108.38 14.6478C108.38 16.4575 107.282 17.8074 105.027 17.8074Z" fill="white"/>
<g clip-path="url(#clip0_6417_1369)">
<path d="M18.8418 26.0905L31.4645 22.2617L20.9978 11.9543L18.8418 26.0905Z" fill="#FFF488"/>
<path d="M39.0586 11.9543L31.4648 22.2617L42.2019 21.6406L39.0586 11.9543Z" fill="#AF1915"/>
<path d="M32.8786 4.13306L31.4648 22.2621L39.0586 11.9548L32.8786 4.13306Z" fill="#F05E3E"/>
<path d="M20.998 11.9548L32.8785 4.13306L31.4647 22.2621L20.998 11.9548Z" fill="#F6DE5C"/>
<path d="M24.2084 0.98877L13.4766 1.74762L20.9978 11.9544L24.2084 0.98877Z" fill="#15847F"/>
<path d="M24.2067 0.98877L32.8767 4.13266L20.9961 11.9544L24.2067 0.98877Z" fill="#00DEDA"/>
<path d="M13.4758 1.74731L5.3457 8.79394L20.9972 11.9541L13.4758 1.74731Z" fill="#15847F"/>
<path d="M16.4755 18.4195L20.9972 11.9546L5.3457 8.79443L16.4755 18.4195Z" fill="#EC2E1C"/>
<path d="M9.03267 29.0669L7.40625 37.0042L15.4374 41.3915L9.03267 29.0669Z" fill="#00DEDA"/>
<path d="M9.03125 29.0666L15.436 41.3912L18.841 26.0903L9.03125 29.0666Z" fill="#15847F"/>
<path d="M15.4355 41.3913L22.8322 32.5635L26.558 41.3913H15.4355Z" fill="#FFF488"/>
<path d="M22.832 32.5635L26.5578 41.3913C26.5578 41.3913 35.5124 36.1424 35.2605 36.3819L22.832 32.5635Z" fill="#F6DE5C"/>
<path d="M22.832 32.5633L31.4631 22.2615L35.2605 36.3817L22.832 32.5633Z" fill="#00DEDA"/>
<path d="M31.4648 22.2617L35.2623 36.382L42.2019 21.6406L31.4648 22.2617Z" fill="#15847F"/>
<path d="M20.9966 11.9543L13.7891 22.2617L18.8406 26.0905L20.9966 11.9543Z" fill="#F6DE5C"/>
<path d="M9.03125 29.0665L13.7894 22.2615L18.841 26.0903L9.03125 29.0665Z" fill="#FFF488"/>
<path d="M18.8418 26.0903L22.8335 32.5633L31.4645 22.2615L18.8418 26.0903Z" fill="#15847F"/>
<path d="M18.8405 26.0903L15.4355 41.3912L22.8322 32.5634L18.8405 26.0903Z" fill="#AF1915"/>
<path d="M5.3457 8.79443L12.7072 23.8083L16.4755 18.4195L5.3457 8.79443Z" fill="#AF1915"/>
<path d="M5.34605 8.79443L0.988281 17.108L10.3612 19.0225L5.34605 8.79443Z" fill="#F05E3E"/>
<path d="M0.988281 17.1077L1.97214 29.3214L5.67475 24.777L10.3612 19.0222" fill="#AF1915"/>
<path d="M10.3615 19.0225L6.46289 23.8082H12.7079L10.3615 19.0225Z" fill="#00DEDA"/>
<path d="M6.46289 23.8079H12.7079L9.03213 29.0666L6.46289 23.8079Z" fill="#15847F"/>
<path d="M9.03232 29.0666L6.46308 23.8079L1.97266 29.3213L9.03232 29.0666Z" fill="#FFF488"/>
<path d="M1.97266 29.3217L9.03232 29.0669L7.4059 37.0042L1.97266 29.3217Z" fill="#F6DE5C"/>
</g>
<defs>
<clipPath id="clip0_6417_1369">
<rect width="41.213" height="40.4026" fill="white" transform="translate(0.988281 0.989014)"/>
</clipPath>
</defs>
</svg>
